<?xml version="1.0" encoding="UTF-8"?>
<svg xmlns="http://www.w3.org/2000/svg" width="56" height="65" viewBox="0 0 56 65" fill="none"><g clip-path="url(#clip0)"><path d="M54.4269 48.8751C54.8593 48.0943 55.1295 47.2393 55.1295 46.44V19.2823C55.1295 18.5015 54.8593 17.6279 54.4269 16.8472L27.5648 32.8704L54.4269 48.8751Z" fill="#00599C"/><path d="M29.9429 64.2848L52.7334 50.7153C53.382 50.3249 53.9945 49.6557 54.4269 48.875L27.5648 32.8704L0.702637 48.875C1.13503 49.6557 1.72956 50.3249 2.39616 50.7153L25.1866 64.2848C26.4838 65.0656 28.6457 65.0656 29.9429 64.2848Z" fill="#004482"/><path d="M54.4269 16.8652C53.9945 16.0845 53.4 15.4153 52.7334 15.0249L29.9429 1.45535C28.6277 0.674633 26.4838 0.674633 25.1686 1.45535L2.37814 15.0249C1.08097 15.8056 0 17.7202 0 19.2817V46.4394C0 47.2201 0.270243 48.0937 0.702631 48.8745L27.5648 32.8698L54.4269 16.8652Z" fill="#659AD2"/><path d="M27.5648 51.8307C17.4397 51.8307 9.18826 43.3171 9.18826 32.8704C9.18826 22.4237 17.4397 13.9102 27.5648 13.9102C34.1046 13.9102 40.1941 17.535 43.473 23.3903L35.5279 28.1304C33.8884 25.212 30.8437 23.3903 27.5648 23.3903C22.5022 23.3903 18.3765 27.6471 18.3765 32.8704C18.3765 38.0938 22.5022 42.3505 27.5648 42.3505C30.8437 42.3505 33.8884 40.5289 35.5279 37.6105L43.473 42.3505C40.1941 48.1873 34.1046 51.8307 27.5648 51.8307Z" fill="white"/><path d="M45.9412 31.8108H43.9054V29.7103H41.8516V31.8108H39.8157V33.9113H41.8516V36.0304H43.9054V33.9113H45.9412V31.8108Z" fill="white"/><path d="M53.5982 31.8108H51.5623V29.7103H49.5085V31.8108H47.4727V33.9113H49.5085V36.0304H51.5623V33.9113H53.5982V31.8108Z" fill="white"/></g><defs><clipPath id="clip0"><rect width="55.1295" height="64" fill="white" transform="translate(0 0.861084)"/></clipPath></defs></svg>